<svg width="13" height="13" viewBox="0 0 13 13" fill="none" xmlns="http://www.w3.org/2000/svg">
<path d="M11.4646 7.81489C11.9603 7.91445 12.3569 8.31268 12.7535 7.81489C12.0595 6.91885 11.2663 6.02282 10.5723 5.22635C9.97746 5.52503 10.5723 5.72415 10.374 6.22194C10.1758 6.62018 7.79633 7.01841 7.20148 7.11797C7.39976 6.52062 8.09376 4.52943 8.39119 4.33031C8.8869 3.93208 9.28347 4.72855 9.68004 4.23076C8.78776 3.13561 7.89547 2.04045 7.00319 0.945299C6.70576 0.547062 6.40833 -0.0502907 6.01176 0.248387C6.01176 0.248387 6.01176 1.74177 5.91262 1.94089C5.81348 2.14001 5.02034 5.52502 4.02891 6.42106C3.5332 6.81929 1.84778 8.31268 1.35207 8.5118C0.856352 8.71092 0.558924 7.91445 0.162354 8.5118C0.955494 9.5074 1.84777 10.503 2.64091 11.4986C2.74006 11.5981 3.23577 12.3946 3.43406 12.3946C3.92977 12.4942 3.5332 11.4986 3.5332 11.2995C3.73148 10.9012 6.01176 8.61136 7.00319 8.41224C8.1929 8.21312 9.97746 7.71533 11.4646 7.81489C11.762 7.91445 11.068 7.81489 11.4646 7.81489Z" fill="white"/>
</svg>
